<?xml version="1.0" encoding="UTF-8"?><svg id="Layer_1" xmlns="http://www.w3.org/2000/svg" xmlns:xlink="http://www.w3.org/1999/xlink" viewBox="0 0 1063.38 580.26"><defs><style>.cls-1{fill:url(#linear-gradient-6);}.cls-1,.cls-2,.cls-3,.cls-4,.cls-5,.cls-6{stroke:#033;stroke-miterlimit:10;stroke-width:14px;}.cls-2{fill:url(#linear-gradient-3);}.cls-3{fill:url(#linear-gradient);}.cls-4{fill:url(#linear-gradient-4);}.cls-7{fill:url(#linear-gradient-11);}.cls-8{fill:url(#linear-gradient-10);}.cls-5{fill:url(#linear-gradient-5);}.cls-6{fill:url(#linear-gradient-2);}.cls-9{fill:url(#linear-gradient-7);}.cls-10{fill:url(#linear-gradient-9);}.cls-11{fill:url(#linear-gradient-8);}.cls-12{fill:url(#linear-gradient-12);}</style><linearGradient id="linear-gradient" x1="94.78" y1="400.79" x2="94.78" y2="67.34" gradientUnits="userSpaceOnUse"><stop offset="0" stop-color="#d77300"/><stop offset=".21" stop-color="#de8001"/><stop offset=".43" stop-color="#e58a03"/><stop offset=".61" stop-color="#e58c00"/><stop offset=".77" stop-color="#e28900"/><stop offset=".89" stop-color="#db7f00"/><stop offset=".99" stop-color="#cf7000"/><stop offset=".99" stop-color="#ce6f00"/></linearGradient><linearGradient id="linear-gradient-2" x1="292.03" y1="573.26" x2="292.03" y2="28.15" xlink:href="#linear-gradient"/><linearGradient id="linear-gradient-3" x1="469.45" y1="502.21" x2="469.45" y2="8.36" xlink:href="#linear-gradient"/><linearGradient id="linear-gradient-4" x1="613.8" y1="491.77" x2="613.8" y2="9.97" xlink:href="#linear-gradient"/><linearGradient id="linear-gradient-5" x1="739.69" y1="478.93" x2="739.69" y2="34.34" xlink:href="#linear-gradient"/><linearGradient id="linear-gradient-6" x1="933.13" y1="437.43" x2="933.13" y2="61.34" xlink:href="#linear-gradient"/><linearGradient id="linear-gradient-7" x1="94.22" y1="401.97" x2="94.22" y2="68.52" xlink:href="#linear-gradient"/><linearGradient id="linear-gradient-8" x1="291.47" y1="574.43" x2="291.47" y2="29.33" xlink:href="#linear-gradient"/><linearGradient id="linear-gradient-9" x1="468.89" y1="503.39" x2="468.89" y2="9.54" xlink:href="#linear-gradient"/><linearGradient id="linear-gradient-10" x1="613.23" y1="492.95" x2="613.23" y2="11.15" xlink:href="#linear-gradient"/><linearGradient id="linear-gradient-11" x1="739.13" y1="480.11" x2="739.13" y2="35.52" xlink:href="#linear-gradient"/><linearGradient id="linear-gradient-12" x1="932.56" y1="438.6" x2="932.56" y2="62.52" xlink:href="#linear-gradient"/></defs><g><path class="cls-3" d="m98.35,80.04c7.48,1.6,15.45,4.7,23.72,9.25,2.8,1.39,5.24,2.52,7.32,3.39,2.08.87,3.75,1.15,4.99.83,1.86-.47,2.89-2.57,3.07-6.36.18-3.79-.37-9.66-1.77-17.87,2.89-.78,4.34-1.17,7.23-1.95,7.24,36.09,14.86,72.01,20.07,108.47-2.76.25-4.13.38-6.88.62-3.58-15.55-8.2-30.49-15.3-44.04-6.45-12.3-15.13-25.3-26.55-32.96-8.76-5.87-20.18-10.54-31.54-7.5-8.6,2.31-18.21,11.28-21.06,19.84-3.52,10.57-3.1,22.68.25,33.45,2.78,8.91,6.37,15.92,11.02,21.55,4.66,5.64,10.18,10.57,16.61,14.99,9.33,6.43,18.86,12.67,28.1,19.29,4.18,3.12,6.24,4.72,10.32,8.01,10.31,8.45,20.2,17.2,28.83,27.3,7.35,8.6,12.05,18.65,16.21,28.96,5.82,14.44,7.16,30.21,7.17,45.26,0,19.97-2.94,42.85-12.34,61.22-6.68,13.04-18.78,24.47-33.24,27.71-15.58,3.49-30.74-.74-45.02-6.37-10.77-4.25-21.55-10.55-30.64-18.2-7.04-5.93-14.3-13.41-19.24-20.94-3.65-5.57-6.66-9.1-9.26-10.07-1.96-.73-3.95.14-6.02,2.5-2.07,2.36-4.53,6.42-7.41,11.9-3.05-1.31-4.57-1.96-7.6-3.25,14.95-32.06,25.34-67.04,27.52-102.38,2.88.21,4.32.32,7.17.55.79,25.16-1.42,50.5,2.37,75.45,3.2,21.06,15.37,39.36,35.26,47.67,10.62,4.43,23.49,4.47,32.51-3.15,12.03-10.16,15.36-27.05,16.69-41.49,1.55-16.86.2-34.71-7.44-51-7.37-15.72-19.88-28.33-32.74-39.3-9.5-8.1-19.94-15.76-30.22-23.09-7.65-5.46-15.29-12.29-21.66-19.03-6.31-6.68-12.07-16.81-14.86-25.51-3.79-11.82-5.24-24.89-2.79-37.32,2.47-12.53,7.95-24.52,16.63-33.99,8.79-9.59,20.45-16.43,32.64-20.14,8.11-2.47,19.26-4.15,27.88-2.31Z"/><path class="cls-6" d="m407.54,471.92c-.91,26.56,2.48,74.51-20.04,95.03-4.78,3.95-10.81,5.78-17.94,6.21-7.14.43-15.11-.54-22.99-2.98-11.58-3.59-21.46-8.21-31.54-14.9-13.76-9.13-25.81-22.13-38.14-33.76-4.12-3.87-8.69-8.22-13.71-13.12-5.03-4.9-10.75-10.42-17.15-16.58-3.31-2.63-4.97-3.96-8.3-6.64-4.57,2.28-9.58,3.36-15.02,3.34-5.44-.02-10.6-1.03-15.41-2.89-5.06-1.95-9.11-4.66-12.1-8.09-2.99-3.43-4.32-7.34-4.02-11.92.63-9.54,7.47-12.23,20.35-7.88,10.19,3.44,18.35,10.24,26.47,17.06,8.02-1.45,16.42-4.52,25.16-9.7,1.6-.9,4.02-2.16,7.21-3.87,3.19-1.71,6.03-3.26,8.52-4.57-24.15-9.68-41.41-28.89-55.4-49.67-17.15-25.46-27.39-56.4-34.5-86.25-6.87-28.83-11.44-57.53-12.2-87.28-.74-29.11-.05-58.36,4.94-87.21,4.55-26.27,12.16-53.53,26.87-75.18,13.53-19.91,30.82-34.8,53.41-40.51,22.52-5.7,44.11-1.24,63.74,12.8,22.88,16.36,36.64,44.72,46.65,70.99,13.3,34.91,18.94,73.4,20.29,110.6,1.35,37.36-3.94,75.31-10.34,112.29-5.75,33.22-12.54,70.62-31.48,97.86-11.22,16.13-30.75,28.25-50.68,26.85-4.21-.3-8.87,1.21-13.16,3.09-4.29,1.89-9.48,4.6-15.34,7.94-7.3,4.16-14.51,7.01-21.53,8.5,9.16,4.12,18.41,8.07,27.72,11.82,18.52,7.38,36.74,16.43,55.86,21.92,7.33,2.1,15.11,3.39,22.46,3.13,10.25-.37,21.55-1.45,29.21-10,10.19-11.37,13.47-27,16.73-41.49,2.16,2.02,3.25,3.03,5.42,5.04Zm-169.38-145.73c5.54,29.03,11.75,59.89,24.63,86.28,7.16,14.66,16.33,32,32.29,36.32,14.99,4.06,23.84-15.46,28.48-26.5,11.4-27.13,14.1-60.25,17.18-90.43,3.5-34.31,6.66-69.16,4.96-103.4-1.68-33.86-6.56-68.62-16.32-101.22-7.08-23.65-15.62-49.79-31.27-68.18-8.62-10.13-20.48-21.93-35.35-18.19-14.3,3.59-22.06,18.65-26.37,32.18-7.2,22.61-8.66,46.86-9.53,70.34-1.11,29.84,0,60.06,1.02,90.02,1.07,31.48,4.43,62.02,10.3,92.79Z"/><path class="cls-2" d="m573.99,24.83c-7.15,1.65-12.38,5.23-15.7,10.52-3.32,5.29-5.54,13.85-6.65,25.29-1.58,16.35-1.45,32.87-1.42,49.28.39,51.42.77,102.84.67,154.27.02,53.25-.23,107.88-6.88,160.78-3.03,19.84-5.56,45.05-18.05,60.1-9.35,11.27-21.5,18.87-37.88,16.81-27.95-3.51-45.37-25.98-56.42-49.13-11.79-24.7-17.19-53.32-21.01-80.84-4.95-35.6-5.98-71.87-6.23-107.97-.64-60.23-4.79-120.25-9.78-180.26-.94-11.56-2.01-23.37-4.72-34.59-1.72-7.12-4.43-11.93-7.91-14.15-3.48-2.23-8.71-3.35-15.71-3.3-.56-5.12-.84-7.69-1.41-12.86,16.55-.56,33.06-2.37,49.53-3.91,16.83-1.58,33.79-2.82,50.49-5.57.21,5.71.31,8.53.52,14.11-7.59,1.2-13.04,3.3-16.38,6.2-3.34,2.9-5.49,8.3-6.27,15.86-1.23,11.83-.46,23.93.05,35.86,3.87,73.56,5.47,146.84,6.33,220.47.77,41.87,3.06,86.14,14.02,125.87,4.75,17.22,13.32,44.63,35.14,46.38,29.61,2.37,35.57-35.73,38.58-57.56,6.57-47.74,6.25-97.86,6.71-146.59.16-50.85-.26-101.7-.71-152.56-.26-18.26-.07-37.21-2.71-54.75-1.37-9.11-3.09-19.57-8.89-27.41-4.25-5.75-11.03-9.82-20.34-12.31-.08-5.73-.12-8.63-.19-14.52,11.48,2.02,23.39,2.17,34.9,2.77,9.17.48,18.95.92,28.21.07.03,5.49.05,8.21.08,13.63Z"/><path class="cls-4" d="m661.7,37.39c-7.41-.61-12.74.05-15.98,1.93-3.24,1.88-5.47,6.27-6.51,13.03-1.69,11.01-1.56,22.52-1.4,33.73,1.03,103.3-.59,206.8,2.05,310.02.52,14.48.87,29.15,3.21,43.36,1.43,8.68,3.95,14.25,7.3,16.68,3.35,2.43,8.72,3.37,16.1,2.77.21,5.92.32,8.85.52,14.61-16.32,1.88-32.48,5.2-48.6,8.26-16.12,3.06-32.46,5.74-48.33,9.99-.39-6.53-.59-9.85-1-16.58,6.44-1.77,11.23-4.59,14.21-8.31,2.97-3.72,4.86-10.43,5.46-20.1.96-15.54.13-31.34-.46-46.97-4.26-105.83-2.17-212.02-2.83-317.93-.2-11.9-.18-23.96-2.03-35.66-1.19-7.48-3.57-12.84-6.96-15.79-3.39-2.96-8.66-5.21-15.81-6.57-.03-5.5-.04-8.28-.07-13.88,17.04,3.38,34.36,5.6,51.48,8.3,16.4,2.59,32.84,5.54,49.37,7.45.11,4.64.16,6.97.26,11.67Z"/><path class="cls-5" d="m761.52,47.72c6.69,4.5,13.44,10.18,20,17.16,2.26,2.24,4.3,4.17,6.17,5.79,1.86,1.62,3.48,2.59,4.83,2.88,2.03.44,3.66-.85,4.85-3.7,1.19-2.84,2.18-7.52,2.87-13.34,3.03.76,4.55,1.14,7.59,1.92-2.28,38.82-3.48,77.73-4.78,116.59-3.36-.34-5.06-.51-8.49-.86-.55-20.36-2.35-40.27-6.34-60.08-3.05-15.15-8.19-30.88-16.86-43.89-6.52-9.8-16.93-17.23-27.92-20.29-8.3-2.31-20.57,1.09-25.55,8.61-7.7,11.64-9.49,26.51-9.44,40.38.04,12.4,1.51,24.92,4.88,36.81,2.88,10.15,7.54,20.97,13.02,30,7.68,12.64,15.96,25.08,24.19,37.45,3.54,5.55,5.27,8.31,8.63,13.75,8.73,13.68,16.07,28.3,26.88,39.95,8.96,9.65,17.1,21.75,23.01,33.5,6.59,13.11,7.3,29.06,7.43,43.5.19,20.44-1.88,42.88-10.04,62.14-7.12,16.8-17.5,29.59-28.44,43.46-8.71,11.05-22.35,19.26-36,23.52-8.42,2.63-20.45,4.26-29.31,1.68-7.97-2.32-16.04-6.62-22.39-13.2-4.96-5.14-8.72-8.31-11.31-7.79-1.94.39-3.36,3.29-4.26,8.65-.9,5.37-1.47,13.78-1.73,24.76-2.97.75-4.46,1.12-7.43,1.85-.55-63.74-4.72-127.69-.91-191.4,3.05.19,4.57.28,7.6.46-1.09,40.26,3.49,83.77,16.04,121.07,6.12,18.21,17.99,46.83,43.36,39.98,12.28-3.32,20.88-13.93,25.69-25.12,7.06-16.38,7.73-36.4,6.81-54.06-.97-18.61-3.54-38.57-11.26-55.76-7.95-17.71-19.85-32.38-32.09-47.23-10.71-13-21.15-26.38-30.41-40.46-8.64-13.14-14.54-27.55-19.51-42.28-6.05-17.94-7.83-37.72-8-56.27-.18-19.93,1.11-42.04,9.31-60.21,5.51-12.2,13.18-25.44,25.95-29.99,12.61-4.48,22.49-3.98,36.28-1.16,8.87,1.81,19.28,5.97,27.07,11.22Z"/><path class="cls-1" d="m1035.1,133.81c-3.51.12-6.4,1.44-8.7,4.22-2.3,2.78-4.77,7.82-7.51,15.98-19.97,61.72-30.23,119.8-17.45,184.02,2.14,9.97,4.49,17.01,6.68,21.11,2.19,4.1,4.99,6.48,8.36,7.25,3.37.76,8.5.53,15.52-.55.9,2.83,1.36,4.23,2.28,6.99-15.32,2.72-30.44,6.83-45.15,11.36-14.89,4.59-29.9,9.78-44.42,15.88-.52-3.45-.78-5.2-1.29-8.74,6.09-2.58,10.41-5.18,13.01-7.8,2.59-2.62,3.96-6.49,4.15-11.69.19-5.19-.66-13.3-2.18-24.37-4.05-32.24-5.08-64.18-3.44-96.62-23.01.98-46.01,2-69.03,2.66,1.19,37.08-.56,73.92.58,111.06.49,12.98,1.58,22.29,3,27.75,1.42,5.47,3.7,8.73,6.77,9.85,3.07,1.12,7.95.99,14.54-.42.35,3.8.52,5.69.88,9.41-15.25,3.72-30.34,8.17-45.44,12.35-17.23,4.77-34.66,9-51.87,13.93-.3-4.45-.44-6.7-.73-11.24,7.68-2.13,13.08-4.72,16.45-7.64,3.37-2.92,5.54-7.68,6.42-14.19,1.36-10.18,1.01-20.78.66-31.1-2.08-85.94-.94-172.23.64-258.25.21-12.7-.33-21.19-1.53-26.54-1.2-5.34-3.55-9.13-7-11.67-3.45-2.54-8.85-4.99-16.19-7.34,0-3.36,0-4.99-.02-8.11,17.39,5.58,35.03,10.43,52.58,15.42,16.72,4.75,33.44,9.6,50.3,13.82-.15,2.5-.23,3.81-.42,6.54-7.47-1.69-12.89-2.29-16.24-1.75-3.34.54-5.69,2.78-7.06,6.99-1.37,4.22-2.27,11.63-2.81,23.18-1.87,39.4-3.76,78.77-3.69,118.22,23.28-.25,46.54-.79,69.81-1.3,3.26-33.31,8.81-66.16,15.49-98.93,1.96-9.39,2.74-15.55,2.39-19.5-.36-3.94-2.09-6.86-5.15-9.01-3.07-2.16-8.13-4.46-15.2-6.97.39-2.45.57-3.62.92-5.86,16.8,5.91,33.85,11.23,50.85,16.32,15.92,4.77,32.01,9.49,48.25,13.37-.8,1.57-1.2,2.41-2.04,4.17-7.13-1.58-12.48-2.38-16-2.25Z"/></g><g><path class="cls-9" d="m97.79,81.22c7.48,1.6,15.45,4.7,23.72,9.25,2.8,1.39,5.24,2.52,7.32,3.39,2.08.87,3.75,1.15,4.99.83,1.86-.47,2.89-2.57,3.07-6.36.18-3.79-.37-9.66-1.77-17.87,2.89-.78,4.34-1.17,7.23-1.95,7.24,36.09,14.86,72.01,20.07,108.47-2.76.25-4.13.38-6.88.62-3.58-15.55-8.2-30.49-15.3-44.04-6.45-12.3-15.13-25.3-26.55-32.96-8.76-5.87-20.18-10.54-31.54-7.5-8.6,2.31-18.21,11.28-21.06,19.84-3.52,10.57-3.1,22.68.25,33.45,2.78,8.91,6.37,15.92,11.02,21.55,4.66,5.64,10.18,10.57,16.61,14.99,9.33,6.43,18.86,12.67,28.1,19.29,4.18,3.12,6.24,4.72,10.32,8.01,10.31,8.45,20.2,17.2,28.83,27.3,7.35,8.6,12.05,18.65,16.21,28.96,5.82,14.44,7.16,30.21,7.17,45.26,0,19.97-2.94,42.85-12.34,61.22-6.68,13.04-18.78,24.47-33.24,27.71-15.58,3.49-30.74-.74-45.02-6.37-10.77-4.25-21.55-10.55-30.64-18.2-7.04-5.93-14.3-13.41-19.24-20.94-3.65-5.57-6.66-9.1-9.26-10.07-1.96-.73-3.95.14-6.02,2.5-2.07,2.36-4.53,6.42-7.41,11.9-3.05-1.31-4.57-1.96-7.6-3.25,14.95-32.06,25.34-67.04,27.52-102.38,2.88.21,4.32.32,7.17.55.79,25.16-1.42,50.5,2.37,75.45,3.2,21.06,15.37,39.36,35.26,47.67,10.62,4.43,23.49,4.47,32.51-3.15,12.03-10.16,15.36-27.05,16.69-41.49,1.55-16.86.2-34.71-7.44-51-7.37-15.72-19.88-28.33-32.74-39.3-9.5-8.1-19.94-15.76-30.22-23.09-7.65-5.46-15.29-12.29-21.66-19.03-6.31-6.68-12.07-16.81-14.86-25.51-3.79-11.82-5.24-24.89-2.79-37.32,2.47-12.53,7.95-24.52,16.63-33.99,8.79-9.59,20.45-16.43,32.64-20.14,8.11-2.47,19.26-4.15,27.88-2.31Z"/><path class="cls-11" d="m406.98,473.09c-.91,26.56,2.48,74.51-20.04,95.03-4.78,3.95-10.81,5.78-17.94,6.21-7.14.43-15.11-.54-22.99-2.98-11.58-3.59-21.46-8.21-31.54-14.9-13.76-9.13-25.81-22.13-38.14-33.76-4.12-3.87-8.69-8.22-13.71-13.12-5.03-4.9-10.75-10.42-17.15-16.58-3.31-2.63-4.97-3.96-8.3-6.64-4.57,2.28-9.58,3.36-15.02,3.34-5.44-.02-10.6-1.03-15.41-2.89-5.06-1.95-9.11-4.66-12.1-8.09-2.99-3.43-4.32-7.34-4.02-11.92.63-9.54,7.47-12.23,20.35-7.88,10.19,3.44,18.35,10.24,26.47,17.06,8.02-1.45,16.42-4.52,25.16-9.7,1.6-.9,4.02-2.16,7.21-3.87,3.19-1.71,6.03-3.26,8.52-4.57-24.15-9.68-41.41-28.89-55.4-49.67-17.15-25.46-27.39-56.4-34.5-86.25-6.87-28.83-11.44-57.53-12.2-87.28-.74-29.11-.05-58.36,4.94-87.21,4.55-26.27,12.16-53.53,26.87-75.18,13.53-19.91,30.82-34.8,53.41-40.51,22.52-5.7,44.11-1.24,63.74,12.8,22.88,16.36,36.64,44.72,46.65,70.99,13.3,34.91,18.94,73.4,20.29,110.6,1.35,37.36-3.94,75.31-10.34,112.29-5.75,33.22-12.54,70.62-31.48,97.86-11.22,16.13-30.75,28.25-50.68,26.85-4.21-.3-8.87,1.21-13.16,3.09-4.29,1.89-9.48,4.6-15.34,7.94-7.3,4.16-14.51,7.01-21.53,8.5,9.16,4.12,18.41,8.07,27.72,11.82,18.52,7.38,36.74,16.43,55.86,21.92,7.33,2.1,15.11,3.39,22.46,3.13,10.25-.37,21.55-1.45,29.21-10,10.19-11.37,13.47-27,16.73-41.49,2.16,2.02,3.25,3.03,5.42,5.04Zm-169.38-145.73c5.54,29.03,11.75,59.89,24.63,86.28,7.16,14.66,16.33,32,32.29,36.32,14.99,4.06,23.84-15.46,28.48-26.5,11.4-27.13,14.1-60.25,17.18-90.43,3.5-34.31,6.66-69.16,4.96-103.4-1.68-33.86-6.56-68.62-16.32-101.22-7.08-23.65-15.62-49.79-31.27-68.18-8.62-10.13-20.48-21.93-35.35-18.19-14.3,3.59-22.06,18.65-26.37,32.18-7.2,22.61-8.66,46.86-9.53,70.34-1.11,29.84,0,60.06,1.02,90.02,1.07,31.48,4.43,62.02,10.3,92.79Z"/><path class="cls-10" d="m573.43,26.01c-7.15,1.65-12.38,5.23-15.7,10.52-3.32,5.29-5.54,13.85-6.65,25.29-1.58,16.35-1.45,32.87-1.42,49.28.39,51.42.77,102.84.67,154.27.02,53.25-.23,107.88-6.88,160.78-3.03,19.84-5.56,45.05-18.05,60.1-9.35,11.27-21.5,18.87-37.88,16.81-27.95-3.51-45.37-25.98-56.42-49.13-11.79-24.7-17.19-53.32-21.01-80.84-4.95-35.6-5.98-71.87-6.23-107.97-.64-60.23-4.79-120.25-9.78-180.26-.94-11.56-2.01-23.37-4.72-34.59-1.72-7.12-4.43-11.93-7.91-14.15-3.48-2.23-8.71-3.35-15.71-3.3-.56-5.12-.84-7.69-1.41-12.86,16.55-.56,33.06-2.37,49.53-3.91,16.83-1.58,33.79-2.82,50.49-5.57.21,5.71.31,8.53.52,14.11-7.59,1.2-13.04,3.3-16.38,6.2-3.34,2.9-5.49,8.3-6.27,15.86-1.23,11.83-.46,23.93.05,35.86,3.87,73.56,5.47,146.84,6.33,220.47.77,41.87,3.06,86.14,14.02,125.87,4.75,17.22,13.32,44.63,35.14,46.38,29.61,2.37,35.57-35.73,38.58-57.56,6.57-47.74,6.25-97.86,6.71-146.59.16-50.85-.26-101.7-.71-152.56-.26-18.26-.07-37.21-2.71-54.75-1.37-9.11-3.09-19.57-8.89-27.41-4.25-5.75-11.03-9.82-20.34-12.31-.08-5.73-.12-8.63-.19-14.52,11.48,2.02,23.39,2.17,34.9,2.77,9.17.48,18.95.92,28.21.07.03,5.49.05,8.21.08,13.63Z"/><path class="cls-8" d="m661.14,38.57c-7.41-.61-12.74.05-15.98,1.93-3.24,1.88-5.47,6.27-6.51,13.03-1.69,11.01-1.56,22.52-1.4,33.73,1.03,103.3-.59,206.8,2.05,310.02.52,14.48.87,29.15,3.21,43.36,1.43,8.68,3.95,14.25,7.3,16.68,3.35,2.43,8.72,3.37,16.1,2.77.21,5.92.32,8.85.52,14.61-16.32,1.88-32.48,5.2-48.6,8.26-16.12,3.06-32.46,5.74-48.33,9.99-.39-6.53-.59-9.85-1-16.58,6.44-1.77,11.23-4.59,14.21-8.31,2.97-3.72,4.86-10.43,5.46-20.1.96-15.54.13-31.34-.46-46.97-4.26-105.83-2.17-212.02-2.83-317.93-.2-11.9-.18-23.96-2.03-35.66-1.19-7.48-3.57-12.84-6.96-15.79-3.39-2.96-8.66-5.21-15.81-6.57-.03-5.5-.04-8.28-.07-13.88,17.04,3.38,34.36,5.6,51.48,8.3,16.4,2.59,32.84,5.54,49.37,7.45.11,4.64.16,6.97.26,11.67Z"/><path class="cls-7" d="m760.95,48.9c6.69,4.5,13.44,10.18,20,17.16,2.26,2.24,4.3,4.17,6.17,5.79,1.86,1.62,3.48,2.59,4.83,2.88,2.03.44,3.66-.85,4.85-3.7,1.19-2.84,2.18-7.52,2.87-13.34,3.03.76,4.55,1.14,7.59,1.92-2.28,38.82-3.48,77.73-4.78,116.59-3.36-.34-5.06-.51-8.49-.86-.55-20.36-2.35-40.27-6.34-60.08-3.05-15.15-8.19-30.88-16.86-43.89-6.52-9.8-16.93-17.23-27.92-20.29-8.3-2.31-20.57,1.09-25.55,8.61-7.7,11.64-9.49,26.51-9.44,40.38.04,12.4,1.51,24.92,4.88,36.81,2.88,10.15,7.54,20.97,13.02,30,7.68,12.64,15.96,25.08,24.19,37.45,3.54,5.55,5.27,8.31,8.63,13.75,8.73,13.68,16.07,28.3,26.88,39.95,8.96,9.65,17.1,21.75,23.01,33.5,6.59,13.11,7.3,29.06,7.43,43.5.19,20.44-1.88,42.88-10.04,62.14-7.12,16.8-17.5,29.59-28.44,43.46-8.71,11.05-22.35,19.26-36,23.52-8.42,2.63-20.45,4.26-29.31,1.68-7.97-2.32-16.04-6.62-22.39-13.2-4.96-5.14-8.72-8.31-11.31-7.79-1.94.39-3.36,3.29-4.26,8.65-.9,5.37-1.47,13.78-1.73,24.76-2.97.75-4.46,1.12-7.43,1.85-.55-63.74-4.72-127.69-.91-191.4,3.05.19,4.57.28,7.6.46-1.09,40.26,3.49,83.77,16.04,121.07,6.12,18.21,17.99,46.83,43.36,39.98,12.28-3.32,20.88-13.93,25.69-25.12,7.06-16.38,7.73-36.4,6.81-54.06-.97-18.61-3.54-38.57-11.26-55.76-7.95-17.71-19.85-32.38-32.09-47.23-10.71-13-21.15-26.38-30.41-40.46-8.64-13.14-14.54-27.55-19.51-42.28-6.05-17.94-7.83-37.72-8-56.27-.18-19.93,1.11-42.04,9.31-60.21,5.51-12.2,13.18-25.44,25.95-29.99,12.61-4.48,22.49-3.98,36.28-1.16,8.87,1.81,19.28,5.97,27.07,11.22Z"/><path class="cls-12" d="m1034.54,134.99c-3.51.12-6.4,1.44-8.7,4.22-2.3,2.78-4.77,7.82-7.51,15.98-19.97,61.72-30.23,119.8-17.45,184.02,2.14,9.97,4.49,17.01,6.68,21.11,2.19,4.1,4.99,6.48,8.36,7.25,3.37.76,8.5.53,15.52-.55.9,2.83,1.36,4.23,2.28,6.99-15.32,2.72-30.44,6.83-45.15,11.36-14.89,4.59-29.9,9.78-44.42,15.88-.52-3.45-.78-5.2-1.29-8.74,6.09-2.58,10.41-5.18,13.01-7.8,2.59-2.62,3.96-6.49,4.15-11.69.19-5.19-.66-13.3-2.18-24.37-4.05-32.24-5.08-64.18-3.44-96.62-23.01.98-46.01,2-69.03,2.66,1.19,37.08-.56,73.92.58,111.06.49,12.98,1.58,22.29,3,27.75,1.42,5.47,3.7,8.73,6.77,9.85,3.07,1.12,7.95.99,14.54-.42.35,3.8.52,5.69.88,9.41-15.25,3.72-30.34,8.17-45.44,12.35-17.23,4.77-34.66,9-51.87,13.93-.3-4.45-.44-6.7-.73-11.24,7.68-2.13,13.08-4.72,16.45-7.64,3.37-2.92,5.54-7.68,6.42-14.19,1.36-10.18,1.01-20.78.66-31.1-2.08-85.94-.94-172.23.64-258.25.21-12.7-.33-21.19-1.53-26.54-1.2-5.34-3.55-9.13-7-11.67-3.45-2.54-8.85-4.99-16.19-7.34,0-3.36,0-4.99-.02-8.11,17.39,5.58,35.03,10.43,52.58,15.42,16.72,4.75,33.44,9.6,50.3,13.82-.15,2.5-.23,3.81-.42,6.54-7.47-1.69-12.89-2.29-16.24-1.75-3.34.54-5.69,2.78-7.06,6.99-1.37,4.22-2.27,11.63-2.81,23.18-1.87,39.4-3.76,78.77-3.69,118.22,23.28-.25,46.54-.79,69.81-1.3,3.26-33.31,8.81-66.16,15.49-98.93,1.96-9.39,2.74-15.55,2.39-19.5-.36-3.94-2.09-6.86-5.15-9.01-3.07-2.16-8.13-4.46-15.2-6.97.39-2.45.57-3.62.92-5.86,16.8,5.91,33.85,11.23,50.85,16.32,15.92,4.77,32.01,9.49,48.25,13.37-.8,1.57-1.2,2.41-2.04,4.17-7.13-1.58-12.48-2.38-16-2.25Z"/></g></svg>